<?xml version="1.0" standalone="no"?>
<!DOCTYPE svg PUBLIC "-//W3C//DTD SVG 20010904//EN"
 "http://www.w3.org/TR/2001/REC-SVG-20010904/DTD/svg10.dtd">
<svg version="1.0" xmlns="http://www.w3.org/2000/svg"
 width="500.000000pt" height="500.000000pt" viewBox="0 0 500.000000 500.000000"
 preserveAspectRatio="xMidYMid meet">
<metadata>
Created by potrace 1.14, written by Peter Selinger 2001-2017
</metadata>
<g transform="translate(0.000000,500.000000) scale(0.100000,-0.100000)"
fill="#000000" stroke="none">
<path d="M2160 4855 c0 -14 8 -29 19 -35 16 -8 23 -6 35 12 19 26 5 48 -30 48
-19 0 -24 -5 -24 -25z"/>
<path d="M2839 4775 c-49 -12 -87 -38 -120 -79 -23 -30 -66 -121 -73 -156 -3
-14 -12 -61 -21 -105 -15 -72 -16 -277 -15 -2085 0 -1483 3 -2014 12 -2043 36
-121 196 -205 403 -211 217 -7 300 43 404 241 67 130 104 168 179 188 144 39
188 85 227 235 5 20 16 118 20 178 3 41 12 88 20 106 25 53 92 113 145 131
102 34 196 155 220 284 15 81 11 198 -10 276 l-18 70 29 23 c70 56 112 178
111 321 -2 113 -16 189 -48 253 l-24 47 24 28 c73 87 97 204 68 332 -12 54
-23 74 -62 115 -69 73 -91 125 -105 242 -9 78 -31 150 -55 184 -13 19 -51 45
-94 66 -87 42 -113 73 -165 194 -52 121 -88 179 -171 274 -106 123 -121 155
-156 351 -22 126 -24 133 -40 183 -59 175 -169 247 -400 261 -7 1 -27 16 -45
34 -19 19 -46 41 -60 50 -33 22 -121 28 -180 12z m156 -28 c11 -5 41 -29 67
-53 26 -24 57 -44 70 -45 121 -3 218 -34 274 -85 70 -66 101 -141 133 -321 36
-205 59 -258 161 -373 85 -97 114 -141 164 -258 58 -133 90 -174 170 -213 112
-57 131 -87 150 -249 14 -108 40 -172 92 -222 55 -52 77 -103 82 -189 5 -91
-14 -166 -58 -227 -34 -47 -50 -53 -50 -19 0 56 -56 188 -104 245 -15 16 -26
41 -26 55 0 43 -36 142 -69 190 -61 89 -139 127 -260 127 -68 0 -189 -28 -244
-57 -29 -15 -32 -15 -42 2 -79 136 -199 277 -271 319 -23 14 -34 30 -41 62
-10 43 -10 44 16 45 83 2 150 30 203 84 46 47 65 87 85 178 31 146 1 258 -80
302 -18 10 -40 30 -50 46 -17 31 -56 39 -75 16 -21 -25 -21 -64 -1 -86 25 -26
43 -27 67 -1 l19 20 33 -22 c54 -37 73 -79 73 -162 0 -73 -3 -91 -22 -163 -26
-96 -114 -167 -225 -182 l-57 -8 -19 36 c-26 52 -82 104 -151 141 -37 20 -59
38 -59 49 0 40 -49 54 -82 24 -24 -21 -23 -58 2 -83 24 -24 43 -25 59 -6 17
20 61 4 127 -45 61 -45 88 -86 108 -160 38 -145 -19 -277 -142 -330 -55 -24
-61 -24 -88 2 -40 38 -92 -1 -79 -60 8 -38 45 -55 74 -35 11 8 21 21 21 28 0
7 17 18 38 24 53 16 125 64 155 103 26 36 57 116 57 149 0 11 5 20 10 20 6 0
48 -37 94 -82 196 -194 280 -407 278 -704 -2 -368 -88 -674 -226 -804 -61 -58
-102 -67 -320 -68 l-191 -1 -22 25 c-27 32 -62 29 -83 -8 -13 -25 -13 -31 0
-55 21 -38 63 -43 84 -10 16 24 16 24 224 24 241 1 257 5 336 87 83 85 157
261 187 444 19 119 16 112 47 103 98 -28 249 -155 289 -242 37 -79 46 -167 28
-279 -9 -58 -26 -98 -58 -136 -42 -50 -81 -63 -207 -69 -252 -12 -380 -70
-426 -192 l-17 -45 -216 4 c-200 3 -219 5 -258 25 -97 52 -118 125 -118 413 1
149 3 170 23 215 51 111 70 118 334 120 195 2 208 1 213 -16 4 -11 18 -22 32
-25 49 -13 82 58 46 98 -22 25 -50 23 -76 -6 -22 -23 -25 -23 -222 -23 -247 0
-274 -9 -336 -108 -19 -30 -19 -23 -19 490 l0 520 20 -32 c29 -48 91 -88 173
-113 91 -28 155 -61 188 -97 42 -45 48 -62 34 -97 -17 -40 -4 -73 31 -82 21
-6 31 -2 46 16 10 12 18 30 18 39 0 22 -28 61 -44 61 -7 0 -18 11 -24 24 -32
72 -117 129 -246 166 -97 27 -142 60 -171 123 -24 51 -24 55 -24 367 1 242 4
322 15 346 23 54 80 92 189 125 55 17 113 36 129 42 46 17 91 62 110 109 26
63 35 80 54 111 15 25 16 29 2 55 -29 52 -90 34 -92 -27 -1 -21 5 -39 15 -46
22 -16 21 -40 -3 -90 -28 -57 -63 -80 -180 -114 -127 -38 -164 -56 -208 -99
l-34 -35 5 299 c5 319 14 389 67 507 27 61 89 122 138 135 46 13 130 12 157
-1z m911 -1684 c32 -11 66 -34 101 -68 79 -80 107 -189 78 -310 -14 -56 -57
-137 -70 -131 -7 2 -22 -2 -34 -10 -29 -20 -29 -77 0 -97 41 -30 86 8 75 64
-3 19 3 46 20 83 14 30 28 74 32 98 l8 43 32 -44 c72 -98 100 -243 65 -336
-14 -39 -24 -51 -43 -53 -55 -8 -79 -65 -43 -104 37 -41 92 -3 81 57 -3 15 3
42 14 63 10 20 21 54 25 75 7 48 24 36 55 -41 19 -49 22 -76 22 -197 1 -134 0
-143 -28 -203 -18 -39 -46 -78 -73 -101 l-43 -38 21 -59 c29 -80 32 -265 5
-339 -40 -113 -110 -186 -208 -221 -50 -17 -100 -62 -134 -119 -23 -40 -27
-60 -39 -214 -9 -108 -39 -194 -83 -240 -29 -30 -53 -44 -112 -61 -41 -12 -87
-31 -102 -42 -36 -25 -78 -86 -130 -190 -81 -160 -155 -203 -348 -203 -58 1
-133 7 -168 14 -89 20 -179 76 -217 136 l-30 48 -2 586 -3 586 19 -40 c24 -49
37 -65 76 -92 46 -31 103 -39 310 -42 104 -1 190 -3 191 -4 1 -1 4 -31 7 -67
3 -36 9 -73 12 -83 5 -11 2 -17 -7 -17 -7 0 -46 -16 -86 -35 -95 -45 -164
-111 -204 -194 -27 -57 -32 -78 -34 -159 l-2 -94 -47 -45 c-61 -60 -96 -131
-108 -219 -3 -17 -13 -43 -22 -58 -37 -56 17 -127 66 -87 28 23 28 69 0 92
-59 48 17 220 129 291 97 62 231 84 322 52 40 -13 47 -20 53 -50 10 -55 75
-70 92 -21 10 31 10 40 1 60 -12 23 -49 38 -65 25 -7 -5 -33 -1 -72 12 -33 11
-79 20 -102 20 -47 0 -150 -25 -190 -46 -24 -12 -27 -12 -32 6 -3 10 -3 45 -1
77 8 147 87 251 244 322 65 30 76 27 101 -25 40 -79 151 -163 217 -164 12 0
26 -8 29 -17 21 -57 90 -46 99 16 4 20 -16 59 -33 65 -16 7 -44 -6 -62 -28 -9
-11 -19 -12 -49 -4 -146 40 -234 183 -228 369 1 53 7 75 29 108 61 93 191 138
410 142 145 3 215 51 253 176 19 59 25 182 14 245 -28 148 -149 279 -325 349
l-40 17 4 58 c6 90 6 283 -2 339 -8 69 -22 129 -47 199 -11 33 -20 62 -20 66
0 7 141 57 180 63 62 10 150 6 196 -10z"/>
<path d="M3370 2890 c-11 -11 -20 -27 -20 -35 0 -27 22 -63 43 -69 19 -5 20
-10 14 -88 -9 -117 -30 -173 -92 -234 -65 -65 -129 -89 -224 -81 -85 6 -121
26 -199 105 -47 47 -62 68 -56 80 21 46 1 91 -43 98 -16 3 -52 -42 -49 -59 7
-36 19 -56 40 -61 13 -3 57 -39 97 -79 112 -112 211 -141 334 -98 139 49 209
160 214 339 1 45 8 94 16 108 16 31 9 60 -18 79 -28 19 -33 19 -57 -5z"/>
<path d="M1802 4758 c-30 -30 6 -80 38 -55 21 16 19 37 -6 53 -15 11 -23 11
-32 2z"/>
<path d="M2491 4681 c-15 -28 17 -64 42 -46 21 15 22 51 1 59 -25 10 -33 7
-43 -13z"/>
<path d="M1477 4613 c-13 -12 -7 -53 7 -53 8 0 17 -10 19 -22 l4 -23 2 23 c0
12 5 22 10 22 14 0 20 37 8 49 -12 12 -40 15 -50 4z"/>
<path d="M2191 4513 c-1 -7 -8 -13 -16 -13 -21 0 -19 -47 3 -59 11 -6 22 -5
32 2 19 15 22 57 5 57 -8 0 -16 6 -18 13 -4 10 -6 10 -6 0z"/>
<path d="M1610 4496 c0 -2 8 -10 18 -17 15 -13 16 -12 3 4 -13 16 -21 21 -21
13z"/>
<path d="M2347 4379 c7 -7 15 -10 18 -7 3 3 -2 9 -12 12 -14 6 -15 5 -6 -5z"/>
<path d="M1843 4323 c-20 -8 -15 -51 6 -63 14 -7 22 -7 26 0 4 6 10 8 15 5 4
-3 7 7 5 21 -3 34 -24 49 -52 37z"/>
<path d="M2499 4320 c-25 -15 -13 -60 16 -60 25 0 39 23 30 51 -7 21 -21 23
-46 9z"/>
<path d="M1185 4304 c-18 -18 -16 -33 7 -47 21 -14 48 -2 48 22 0 30 -34 45
-55 25z"/>
<path d="M2440 4240 c-9 -6 -10 -10 -3 -10 6 0 15 5 18 10 8 12 4 12 -15 0z"/>
<path d="M1502 4104 c-19 -21 -25 -34 -16 -30 9 4 24 0 33 -8 20 -18 44 -3 54
32 3 13 3 21 0 18 -4 -3 -14 1 -23 9 -15 13 -20 11 -48 -21z"/>
<path d="M2155 4083 c-10 -16 -14 -25 -10 -21 4 4 17 -2 29 -13 21 -20 21 -20
38 1 13 17 15 27 8 41 -15 27 -45 23 -65 -8z"/>
<path d="M1861 4044 c0 -11 3 -14 6 -6 3 7 2 16 -1 19 -3 4 -6 -2 -5 -13z"/>
<path d="M1027 3963 c-12 -12 -7 -51 7 -56 38 -15 64 16 42 51 -8 13 -38 16
-49 5z"/>
<path d="M1818 3930 c6 -8 12 -22 12 -32 0 -24 31 -39 51 -25 9 7 14 17 12 24
-2 6 6 18 19 27 12 9 17 16 11 16 -7 0 -15 -5 -18 -10 -4 -6 -13 -7 -24 -1
-10 6 -23 6 -31 1 -9 -5 -20 -4 -30 3 -12 9 -13 9 -2 -3z"/>
<path d="M2502 3931 c-7 -4 -14 -14 -15 -22 -2 -8 -5 -19 -9 -24 -4 -7 7 -11
30 -10 40 0 54 23 32 50 -14 17 -20 18 -38 6z"/>
<path d="M1861 3804 c0 -11 3 -14 6 -6 3 7 2 16 -1 19 -3 4 -6 -2 -5 -13z"/>
<path d="M1512 3738 c-16 -16 -15 -33 3 -48 19 -15 55 -3 55 19 0 9 6 23 13
31 10 12 9 12 -5 2 -11 -9 -18 -10 -23 -2 -8 13 -28 13 -43 -2z"/>
<path d="M2164 3744 c-16 -7 -5 -48 17 -62 11 -7 19 -8 19 -2 0 5 7 10 15 10
17 0 17 40 0 52 -11 8 -34 9 -51 2z"/>
<path d="M1055 3552 c-13 -44 34 -78 53 -38 17 35 11 52 -19 54 -19 2 -29 -3
-34 -16z"/>
<path d="M1820 3548 c6 -7 10 -18 10 -25 0 -7 8 -21 18 -31 16 -16 20 -16 32
-4 22 24 21 59 -3 66 -12 3 -26 1 -32 -4 -7 -6 -16 -6 -23 0 -9 7 -9 7 -2 -2z"/>
<path d="M2498 3553 c-10 -2 -15 -10 -11 -19 3 -8 0 -20 -5 -27 -9 -10 -3 -13
26 -12 27 0 38 5 40 18 4 18 -14 48 -27 46 -3 -1 -14 -3 -23 -6z"/>
<path d="M2173 3366 c-11 -6 -18 -17 -16 -24 3 -7 -1 -20 -9 -29 -9 -11 -9
-14 -1 -9 7 4 22 2 33 -4 13 -7 20 -7 20 0 0 5 6 10 14 10 18 0 13 34 -7 54
-10 11 -18 11 -34 2z"/>
<path d="M805 3356 c-22 -16 -15 -50 11 -54 25 -4 47 19 38 41 -8 22 -29 28
-49 13z"/>
<path d="M1515 3360 c-4 -6 -9 -8 -13 -6 -4 2 -7 -8 -7 -22 0 -23 5 -27 33
-29 17 -2 32 2 32 8 0 5 4 8 9 5 13 -8 0 37 -13 46 -16 11 -34 10 -41 -2z"/>
<path d="M1861 3244 c0 -11 3 -14 6 -6 3 7 2 16 -1 19 -3 4 -6 -2 -5 -13z"/>
<path d="M1359 3233 c-13 -17 -13 -17 6 -3 11 8 22 16 24 17 2 2 0 3 -6 3 -6
0 -17 -8 -24 -17z"/>
<path d="M2020 3240 c-9 -6 -10 -10 -3 -10 6 0 15 5 18 10 8 12 4 12 -15 0z"/>
<path d="M1860 3191 c0 -5 -9 -13 -20 -16 -15 -5 -18 -10 -11 -23 6 -11 4 -20
-7 -30 -10 -7 -12 -11 -6 -8 6 3 26 6 45 7 27 2 35 7 37 23 0 11 -8 29 -18 39
-11 10 -20 13 -20 8z"/>
<path d="M1181 3167 c-10 -27 -4 -47 16 -47 9 0 11 -5 7 -12 -4 -7 2 -5 13 5
11 9 22 15 25 12 2 -3 4 5 4 18 -2 40 -52 58 -65 24z"/>
<path d="M2496 3174 c-9 -8 -14 -20 -10 -25 3 -6 0 -18 -8 -27 -12 -15 -11
-16 4 -4 11 9 18 10 23 2 9 -15 45 7 45 28 0 18 -18 42 -31 42 -4 0 -15 -7
-23 -16z"/>
<path d="M1861 3004 c0 -11 3 -14 6 -6 3 7 2 16 -1 19 -3 4 -6 -2 -5 -13z"/>
<path d="M856 2978 c-15 -48 -13 -54 13 -52 14 1 30 2 34 3 5 0 7 13 5 29 -2
19 -9 28 -26 30 -12 2 -24 -3 -26 -10z"/>
<path d="M1514 2982 c-12 -8 -26 -55 -14 -47 4 3 13 -2 20 -10 11 -14 15 -14
31 1 23 21 25 50 3 58 -20 8 -26 7 -40 -2z"/>
<path d="M2165 2982 c-16 -11 -12 -46 7 -54 28 -12 58 2 55 26 -2 24 -15 36
-37 36 -8 0 -19 -4 -25 -8z"/>
<path d="M920 2936 c0 -2 8 -10 18 -17 15 -13 16 -12 3 4 -13 16 -21 21 -21
13z"/>
<path d="M1852 2793 c-7 -7 -17 -11 -22 -8 -15 9 2 -39 20 -57 16 -15 18 -15
30 2 8 11 18 16 23 13 11 -7 -12 37 -27 53 -9 8 -15 7 -24 -3z"/>
<path d="M623 2793 c-18 -7 -16 -38 3 -54 18 -15 49 -1 49 22 0 8 3 19 7 24 6
10 -37 16 -59 8z"/>
<path d="M1192 2791 c-20 -12 -23 -50 -5 -60 25 -14 62 7 56 30 -7 24 -35 40
-51 30z"/>
<path d="M2485 2771 c2 -33 24 -52 47 -40 31 17 20 53 -18 57 -25 2 -30 0 -29
-17z"/>
<path d="M1519 2609 c-9 -9 -18 -26 -21 -37 -5 -17 -2 -22 13 -22 10 0 19 -5
19 -12 0 -6 7 -5 18 5 12 11 22 14 30 7 9 -7 9 -7 2 2 -5 7 -10 18 -10 25 0 7
-8 21 -17 31 -17 16 -19 16 -34 1z"/>
<path d="M838 2608 c8 -9 11 -21 8 -26 -3 -5 0 -17 8 -27 17 -24 52 -12 59 20
3 20 -1 27 -20 31 -13 4 -27 4 -30 0 -3 -3 -13 0 -22 7 -14 10 -14 10 -3 -5z"/>
<path d="M2152 2593 c5 -7 8 -19 5 -27 -6 -16 23 -27 52 -19 12 3 18 13 17 29
-1 25 -18 34 -63 31 -17 -1 -19 -4 -11 -14z"/>
<path d="M1861 2524 c0 -11 3 -14 6 -6 3 7 2 16 -1 19 -3 4 -6 -2 -5 -13z"/>
<path d="M699 2443 c-13 -16 -12 -17 4 -4 9 7 17 15 17 17 0 8 -8 3 -21 -13z"/>
<path d="M1190 2420 c-19 -19 -21 -60 -3 -60 7 0 13 -5 13 -11 0 -6 7 -3 16 5
8 9 19 14 24 11 14 -9 -2 39 -19 55 -14 14 -18 14 -31 0z"/>
<path d="M1851 2423 c-7 -7 -16 -11 -21 -8 -4 3 -6 -4 -3 -15 3 -11 -1 -28 -8
-38 -13 -15 -12 -16 3 -4 13 11 19 11 29 -1 12 -12 16 -12 28 1 22 21 22 41 2
61 -14 14 -19 15 -30 4z"/>
<path d="M2507 2419 c-9 -6 -22 -7 -29 -3 -7 5 -8 3 -2 -7 8 -13 10 -18 13
-38 2 -15 33 -22 47 -10 31 26 5 77 -29 58z"/>
<path d="M593 2404 c-6 -17 6 -46 23 -51 17 -5 35 14 38 39 2 20 -2 24 -26 26
-19 2 -31 -3 -35 -14z"/>
<path d="M1861 2284 c0 -11 3 -14 6 -6 3 7 2 16 -1 19 -3 4 -6 -2 -5 -13z"/>
<path d="M877 2275 c-4 -8 -3 -16 1 -19 4 -3 9 4 9 15 2 23 -3 25 -10 4z"/>
<path d="M2177 2230 c-22 -21 -22 -49 0 -65 14 -10 20 -10 31 1 7 8 19 11 25
7 7 -4 6 0 -1 10 -8 9 -12 20 -9 24 2 4 -4 15 -12 23 -15 14 -18 14 -34 0z"/>
<path d="M842 2221 c9 -16 10 -26 2 -38 -10 -16 -7 -18 17 -17 47 2 49 3 49
22 0 10 5 23 10 28 7 7 -2 10 -28 10 -21 0 -44 4 -51 8 -10 6 -10 4 1 -13z"/>
<path d="M1514 2222 c-6 -4 -13 -18 -17 -30 -3 -13 -3 -21 0 -18 3 3 14 1 25
-5 13 -7 23 -7 32 0 7 6 16 8 20 4 4 -4 4 0 0 10 -3 9 0 25 7 35 13 15 12 16
-3 3 -12 -9 -18 -10 -18 -2 0 12 -29 15 -46 3z"/>
<path d="M1848 2038 c-23 -23 -23 -43 1 -67 18 -18 18 -18 30 1 6 10 16 16 22
12 8 -4 8 -1 0 13 -6 11 -7 23 -4 27 3 3 -1 6 -10 6 -8 0 -17 6 -19 13 -2 9
-8 8 -20 -5z"/>
<path d="M587 2032 c-21 -23 -21 -36 -2 -52 19 -16 57 -3 53 18 -1 9 1 23 6
31 6 10 5 12 -3 7 -6 -4 -18 -3 -25 3 -10 8 -17 6 -29 -7z"/>
<path d="M1190 2030 c-11 -11 -20 -27 -20 -35 0 -18 52 -33 58 -17 2 7 7 10
12 7 12 -8 -2 38 -16 53 -11 10 -17 9 -34 -8z"/>
<path d="M2482 2023 c6 -7 7 -13 4 -13 -4 0 -2 -9 4 -21 17 -30 54 -22 58 14
2 15 -1 28 -7 28 -50 6 -69 3 -59 -8z"/>
<path d="M2180 1850 c-8 -5 -17 -7 -20 -5 -3 2 -5 -10 -5 -25 0 -16 2 -26 4
-24 2 2 10 -1 18 -7 9 -8 17 -8 26 0 8 6 16 8 19 5 3 -3 5 6 4 20 -1 28 -27
48 -46 36z"/>
<path d="M846 1822 c4 -34 35 -54 49 -32 4 7 14 6 28 -1 19 -9 20 -8 6 3 -9 8
-18 22 -20 33 -3 15 -13 20 -35 21 -27 1 -31 -2 -28 -24z"/>
<path d="M1498 1828 c2 -10 -2 -26 -9 -36 -12 -15 -12 -16 1 -5 17 13 34 6 43
-17 4 -12 6 -11 6 3 1 15 10 20 31 19 3 0 5 12 5 27 0 26 -3 28 -41 27 -34 0
-40 -3 -36 -18z"/>
<path d="M1861 1804 c0 -11 3 -14 6 -6 3 7 2 16 -1 19 -3 4 -6 -2 -5 -13z"/>
<path d="M1861 1678 c-1 -17 -9 -21 -41 -19 -10 0 -11 -1 -2 -5 6 -3 12 -13
12 -23 0 -9 -6 -23 -12 -31 -11 -12 -10 -12 2 -3 10 7 21 8 30 3 9 -5 19 -5
27 1 7 6 18 7 25 3 10 -5 10 -4 1 6 -8 9 -9 19 -2 32 5 10 6 18 2 17 -20 -3
-32 2 -36 19 -4 16 -5 16 -6 0z"/>
<path d="M2506 1664 c-11 -7 -23 -11 -28 -7 -6 3 -5 -4 1 -16 7 -12 10 -25 7
-30 -4 -7 29 -8 57 -3 11 3 8 35 -6 53 -11 15 -15 15 -31 3z"/>
<path d="M688 1659 c-5 -4 -8 -17 -6 -30 2 -18 10 -25 31 -27 18 -2 25 -8 21
-15 -4 -7 -4 -9 1 -5 4 4 8 24 9 45 1 34 -2 38 -22 38 -13 0 -28 -3 -34 -6z"/>
<path d="M1182 1657 c-12 -14 -12 -58 -1 -51 4 2 10 0 14 -6 4 -7 12 -7 24 0
10 5 21 7 24 4 9 -10 -5 40 -16 54 -12 16 -32 15 -45 -1z"/>
<path d="M780 1545 c13 -14 26 -25 28 -25 3 0 -5 11 -18 25 -13 14 -26 25 -28
25 -3 0 5 -11 18 -25z"/>
<path d="M1517 1467 c-22 -27 -22 -39 1 -58 16 -13 19 -13 35 1 9 9 17 24 17
33 0 8 6 18 13 21 6 3 2 3 -10 0 -13 -3 -25 1 -30 10 -7 13 -11 11 -26 -7z"/>
<path d="M868 1472 c-12 -2 -18 -13 -18 -32 0 -18 6 -29 18 -32 27 -7 42 2 42
27 0 27 -18 43 -42 37z"/>
<path d="M2177 1467 c-26 -21 -26 -52 -1 -64 18 -8 24 -7 28 4 4 9 13 13 22 9
14 -5 15 -4 5 8 -7 8 -10 19 -8 24 3 4 -3 13 -13 19 -13 9 -21 9 -33 0z"/>
<path d="M1861 1404 c0 -11 3 -14 6 -6 3 7 2 16 -1 19 -3 4 -6 -2 -5 -13z"/>
<path d="M876 1309 c3 -37 15 -52 40 -47 27 5 30 44 5 58 -12 6 -21 8 -21 4 0
-3 -6 -2 -13 4 -10 9 -13 5 -11 -19z"/>
<path d="M1325 1320 c-3 -6 1 -7 9 -4 18 7 21 14 7 14 -6 0 -13 -4 -16 -10z"/>
<path d="M1861 1289 c0 -9 -8 -19 -16 -23 -21 -8 -19 -38 3 -57 17 -15 20 -15
31 3 7 11 17 16 24 11 7 -4 7 -1 -2 10 -10 13 -11 20 -2 31 10 12 9 13 -8 9
-13 -3 -21 1 -24 14 -4 14 -5 15 -6 2z"/>
<path d="M1191 1271 c-8 -10 -12 -21 -10 -23 2 -3 -2 -12 -10 -22 -12 -14 -12
-16 3 -10 9 4 18 0 22 -9 5 -14 8 -14 25 1 22 19 26 62 5 62 -8 0 -16 5 -18
10 -2 6 -9 2 -17 -9z"/>
<path d="M2502 1272 c-7 -5 -14 -18 -17 -30 -3 -17 2 -23 20 -28 13 -3 29 -3
34 1 15 8 14 38 -1 53 -14 14 -19 14 -36 4z"/>
<path d="M989 1093 c-13 -16 -12 -17 4 -4 9 7 17 15 17 17 0 8 -8 3 -21 -13z"/>
<path d="M1522 1094 c-22 -24 -32 -60 -16 -62 54 -7 72 -1 66 22 -3 12 -12 28
-21 37 -14 13 -19 13 -29 3z"/>
<path d="M2181 1093 c-7 -7 -15 -12 -19 -9 -4 2 -7 -9 -7 -24 0 -16 2 -27 4
-25 2 3 12 0 22 -5 12 -7 20 -6 24 1 4 6 14 8 22 4 13 -4 14 -3 4 9 -7 8 -11
19 -8 23 2 4 -4 15 -13 24 -13 13 -18 13 -29 2z"/>
<path d="M920 1085 c-19 -22 -8 -50 21 -53 34 -4 46 24 23 49 -21 23 -28 23
-44 4z"/>
<path d="M1460 1020 c-9 -6 -10 -10 -3 -10 6 0 15 5 18 10 8 12 4 12 -15 0z"/>
<path d="M2109 1013 c-13 -16 -12 -17 4 -4 16 13 21 21 13 21 -2 0 -10 -8 -17
-17z"/>
<path d="M1020 1006 c0 -2 8 -10 18 -17 15 -13 16 -12 3 4 -13 16 -21 21 -21
13z"/>
<path d="M1690 966 c0 -2 7 -7 16 -10 8 -3 12 -2 9 4 -6 10 -25 14 -25 6z"/>
<path d="M1190 901 c-14 -5 -16 -14 -12 -47 2 -9 52 -28 52 -20 0 1 4 16 10
35 5 19 7 31 3 28 -3 -4 -13 -3 -22 2 -9 5 -23 6 -31 2z"/>
<path d="M1848 897 c-16 -12 -31 -57 -19 -55 20 2 31 -4 32 -19 0 -14 2 -13 9
5 5 12 14 22 21 22 6 0 9 6 6 14 -3 7 0 19 6 26 9 10 9 11 -1 6 -7 -4 -19 -3
-26 3 -9 8 -17 7 -28 -2z"/>
<path d="M2486 877 c2 -11 -4 -27 -14 -34 -9 -8 -11 -11 -3 -7 8 4 28 7 45 8
26 1 31 5 31 26 0 21 -5 25 -32 26 -26 1 -31 -2 -27 -19z"/>
<path d="M1517 720 c-22 -21 -22 -46 0 -59 41 -22 71 29 35 60 -16 13 -19 13
-35 -1z"/>
<path d="M2180 710 c-8 -5 -17 -7 -21 -4 -14 8 4 -42 22 -58 15 -15 18 -15 23
-2 4 10 13 14 22 10 13 -5 14 -4 6 7 -7 8 -10 16 -7 19 11 11 -31 37 -45 28z"/>
<path d="M1290 681 c0 -10 29 -36 34 -30 1 2 -6 12 -16 22 -10 9 -18 13 -18 8z"/>
<path d="M2430 540 c0 -5 5 -10 11 -10 5 0 7 5 4 10 -3 6 -8 10 -11 10 -2 0
-4 -4 -4 -10z"/>
<path d="M1850 520 c-8 -5 -17 -7 -21 -5 -3 3 -4 -7 -1 -21 6 -30 38 -50 56
-35 7 6 16 7 21 3 4 -4 3 2 -3 14 -8 15 -8 24 1 34 9 10 9 11 -1 6 -7 -4 -18
-3 -25 3 -8 6 -18 6 -27 1z"/>
<path d="M2505 520 c-4 -6 -10 -8 -14 -6 -6 4 -7 -7 -2 -45 1 -4 8 -10 17 -13
21 -8 44 11 44 35 0 22 -35 44 -45 29z"/>
<path d="M1556 385 c-29 -30 -18 -54 28 -59 29 -4 33 34 7 58 -17 16 -20 16
-35 1z"/>
<path d="M2141 328 c9 -8 18 -22 20 -33 6 -27 45 -32 58 -7 13 25 -22 63 -41
44 -8 -8 -17 -8 -32 -1 -18 9 -19 8 -5 -3z"/>
<path d="M2196 174 c-19 -19 -20 -26 -4 -42 31 -31 75 10 48 43 -16 19 -25 19
-44 -1z"/>
<path d="M1861 169 c-1 -9 -8 -20 -17 -23 -26 -10 -13 -51 18 -54 32 -4 49 32
25 51 -8 7 -17 19 -20 27 -4 12 -6 12 -6 -1z"/>
</g>
</svg>
